HIERARCHY
ROOT Hips
{
	OFFSET -1.602300 6.242603 43.997101
	CHANNELS 6 Xposition Yposition Zposition Zrotation Xrotation Yrotation
	JOINT Chest
	{
		OFFSET -0.204900 1.598101 7.917301
		CHANNELS 6 Xposition Yposition Zposition Zrotation Xrotation Yrotation
		JOINT Chest2
		{
			OFFSET 0.000000 0.000000 3.404099
			CHANNELS 6 Xposition Yposition Zposition Zrotation Xrotation Yrotation
			JOINT Neck
			{
				OFFSET 0.000000 0.000000 7.928600
				CHANNELS 6 Xposition Yposition Zposition Zrotation Xrotation Yrotation
				JOINT Head
				{
					OFFSET 0.000000 0.000000 2.173897
					CHANNELS 6 Xposition Yposition Zposition Zrotation Xrotation Yrotation
					End Site
					{
						OFFSET 0.000000 0.000001 10.404503
					}
				}
			}
			JOINT LeftCollar
			{
				OFFSET 2.833800 -1.396299 4.843300
				CHANNELS 6 Xposition Yposition Zposition Zrotation Xrotation Yrotation
				JOINT LeftShoulder
				{
					OFFSET 4.363600 0.000000 0.000000
					CHANNELS 6 Xposition Yposition Zposition Zrotation Xrotation Yrotation
					JOINT LeftElbow
					{
						OFFSET 0.000000 -0.000001 -10.306900
						CHANNELS 6 Xposition Yposition Zposition Zrotation Xrotation Yrotation
						JOINT LeftWrist
						{
							OFFSET 0.000000 -0.000001 -12.404900
							CHANNELS 6 Xposition Yposition Zposition Zrotation Xrotation Yrotation
							End Site
							{
								OFFSET 0.000000 0.000000 -2.173901
							}
						}
					}
				}
			}
			JOINT RightCollar
			{
				OFFSET -2.354800 -1.897200 5.063099
				CHANNELS 6 Xposition Yposition Zposition Zrotation Xrotation Yrotation
				JOINT RightShoulder
				{
					OFFSET -4.375800 0.000000 0.000000
					CHANNELS 6 Xposition Yposition Zposition Zrotation Xrotation Yrotation
					JOINT RightElbow
					{
						OFFSET 0.000000 -0.000001 -10.005001
						CHANNELS 6 Xposition Yposition Zposition Zrotation Xrotation Yrotation
						JOINT RightWrist
						{
							OFFSET 0.000000 -0.000001 -13.174900
							CHANNELS 6 Xposition Yposition Zposition Zrotation Xrotation Yrotation
							End Site
							{
								OFFSET 0.000000 0.000000 -2.173901
							}
						}
					}
				}
			}
		}
	}
	JOINT LeftHip
	{
		OFFSET 2.240600 0.386800 -2.614101
		CHANNELS 6 Xposition Yposition Zposition Zrotation Xrotation Yrotation
		JOINT LeftKnee
		{
			OFFSET 0.000000 -0.000001 -18.592899
			CHANNELS 6 Xposition Yposition Zposition Zrotation Xrotation Yrotation
			JOINT LeftAnkle
			{
				OFFSET 0.000000 -0.000001 -18.765800
				CHANNELS 6 Xposition Yposition Zposition Zrotation Xrotation Yrotation
				End Site
				{
					OFFSET 0.000000 -8.655000 0.000000
				}
			}
		}
	}
	JOINT RightHip
	{
		OFFSET -2.014900 -0.220900 -2.615898
		CHANNELS 6 Xposition Yposition Zposition Zrotation Xrotation Yrotation
		JOINT RightKnee
		{
			OFFSET 0.000000 -0.000001 -18.633900
			CHANNELS 6 Xposition Yposition Zposition Zrotation Xrotation Yrotation
			JOINT RightAnkle
			{
				OFFSET 0.000000 -0.000001 -18.285101
				CHANNELS 6 Xposition Yposition Zposition Zrotation Xrotation Yrotation
				End Site
				{
					OFFSET 0.000000 -7.524500 0.000000
				}
			}
		}
	}
}
MOTION
Frames: 5
Frame Time: 0.041667
-5.921200 25.569506 7.808903 4.190178 5.941241 0.632211 -0.204901 1.598100 7.917309 -3.764059 7.914296 -3.206852 0.000000 0.000002 3.404098 6.063388 -13.746079 -0.636852 0.000001 0.000001 7.928596 -2.474927 10.297018 4.744191 -0.000001 -0.000002 2.173901 -1.687619 -3.070002 -1.997392 2.833801 -1.396301 4.843306 -8.659598 11.210588 19.955381 4.363597 0.000007 -0.000002 -60.139331 -10.457201 -81.282420 0.000002 0.000005 -10.306903 588.618162 -131.541616 586.230109 -0.000002 0.000007 -12.404900 -431.012640 147.197953 -110.135202 -2.354801 -1.897201 5.063105 13.007290 9.268938 -13.698879 -4.375797 0.000009 -0.000002 49.892350 -19.129120 79.312143 -0.000000 0.000010 -10.004995 -581.640987 -137.181658 -589.895134 0.000003 0.000011 -13.174905 -100.480388 13.238457 269.786571 2.240597 0.386800 -2.614102 139.700127 -35.597136 105.644250 -0.000001 0.000000 -18.592890 -108.395409 41.261258 137.392465 0.000000 -0.000000 -18.765799 8.969272 37.399175 -19.343249 -2.014898 -0.220899 -2.615898 -119.036004 -14.532889 -101.725060 -0.000000 0.000002 -18.633884 180.821089 26.536296 -181.201025 -0.000005 -0.000007 -18.285086 -13.442332 34.804923 -211.079306
-5.909500 25.530104 7.828106 4.297995 6.360024 0.655803 -0.204900 1.598105 7.917305 -3.872290 7.407005 -3.259409 -0.000000 -0.000000 3.404100 6.050672 -13.741667 -0.640351 0.000000 -0.000001 7.928602 -2.513262 9.932765 4.661862 -0.000000 0.000002 2.173898 -1.699805 -3.189238 -2.054304 2.833802 -1.396303 4.843308 -8.681357 11.126738 19.902715 4.363595 0.000004 -0.000001 -60.408071 -10.465733 -81.528403 0.000001 0.000006 -10.306899 587.222618 -131.399876 585.089031 -0.000004 0.000011 -12.404902 -429.464427 147.490941 -109.114266 -2.354804 -1.897200 5.063104 12.854900 9.139775 -13.507496 -4.375796 0.000008 -0.000003 50.416621 -19.286627 79.724079 -0.000002 0.000006 -10.004996 -581.358491 -138.067739 -589.490896 0.000004 0.000007 -13.174900 -103.938745 14.155168 271.441662 2.240598 0.386805 -2.614107 139.806541 -35.569894 105.986470 -0.000001 0.000001 -18.592892 -108.194834 41.246915 137.362836 0.000001 0.000001 -18.765799 8.893612 37.352344 -19.323881 -2.014897 -0.220893 -2.615904 -119.277656 -14.179896 -102.032357 -0.000000 0.000005 -18.633886 180.893886 26.459352 -181.140401 -0.000006 -0.000004 -18.285084 -13.454069 34.793308 -211.080590
-5.900101 25.494400 7.845612 4.409373 6.753606 0.677580 -0.204899 1.598107 7.917308 -3.986279 6.927729 -3.297026 0.000000 -0.000000 3.404105 6.053411 -13.740368 -0.641316 0.000000 0.000001 7.928599 -2.544418 9.591728 4.560259 -0.000000 -0.000001 2.173898 -1.749771 -3.310656 -2.138593 2.833803 -1.396301 4.843306 -8.606259 11.027435 19.872871 4.363595 0.000007 -0.000000 -60.773036 -10.302253 -81.757535 0.000000 0.000002 -10.306904 585.882589 -131.293106 583.984616 -0.000004 0.000009 -12.404901 -427.848678 147.669660 -107.826981 -2.354803 -1.897199 5.063109 12.592552 9.042090 -12.711290 -4.375796 0.000011 -0.000005 50.815743 -19.884431 79.600322 -0.000003 0.000010 -10.004999 -581.055558 -138.771002 -589.063490 0.000004 0.000005 -13.174900 -105.356911 14.222411 271.383797 2.240597 0.386812 -2.614103 139.906904 -35.537928 106.326422 -0.000000 -0.000001 -18.592896 -107.982729 41.177674 137.354585 0.000002 0.000000 -18.765799 8.949135 37.261807 -19.446160 -2.014896 -0.220890 -2.615902 -119.505880 -13.865707 -102.322545 -0.000001 0.000005 -18.633886 180.954305 26.394411 -181.092070 -0.000005 -0.000003 -18.285084 -13.459214 34.782486 -211.089428
-5.894700 25.460903 7.861908 4.513351 7.035902 0.872373 -0.204900 1.598101 7.917310 -4.076384 6.565188 -3.474777 -0.000001 0.000000 3.404102 6.061904 -13.735381 -0.636152 -0.000001 0.000002 7.928601 -2.579599 9.273132 4.427243 -0.000001 0.000003 2.173899 -1.821068 -3.449420 -2.194726 2.833803 -1.396301 4.843304 -8.471893 10.973400 19.821720 4.363595 0.000013 -0.000003 -61.212251 -10.124818 -82.022984 0.000001 0.000002 -10.306897 584.295144 -131.127816 582.752614 -0.000003 0.000009 -12.404902 -425.962453 147.671203 -106.315310 -2.354803 -1.897202 5.063106 12.491371 8.946812 -12.752398 -4.375796 0.000009 0.000002 51.276112 -19.931978 80.096802 -0.000007 0.000008 -10.004996 -580.749894 -139.538401 -588.701982 0.000006 0.000004 -13.174905 -105.152559 14.249579 271.248696 2.240597 0.386806 -2.614100 140.083683 -35.707198 106.771115 -0.000002 -0.000003 -18.592894 -107.753406 41.085685 137.329819 0.000000 0.000001 -18.765800 9.036380 37.158193 -19.566906 -2.014897 -0.220892 -2.615896 -119.666062 -13.485059 -102.432115 0.000001 0.000003 -18.633884 181.001789 26.345455 -181.056348 -0.000005 -0.000005 -18.285086 -13.455760 34.771298 -211.105957
-5.891200 25.428804 7.878906 4.586251 7.389127 1.004717 -0.204900 1.598097 7.917306 -4.151629 6.123335 -3.546172 -0.000001 -0.000000 3.404099 6.043835 -13.736004 -0.634286 0.000000 -0.000001 7.928601 -2.580503 8.967399 4.230284 -0.000000 0.000002 2.173901 -1.894368 -3.559734 -2.180146 2.833802 -1.396300 4.843303 -8.217010 10.905463 19.790620 4.363594 0.000009 -0.000001 -61.714967 -9.857113 -82.324277 0.000002 0.000001 -10.306901 582.906048 -131.127037 581.626617 -0.000006 0.000012 -12.404902 -424.297526 147.393720 -105.717087 -2.354800 -1.897200 5.063100 12.459520 8.903231 -12.865203 -4.375797 0.000010 -0.000005 51.729011 -20.024267 80.653578 -0.000007 0.000005 -10.005001 -580.433410 -140.312043 -588.372385 0.000002 0.000009 -13.174904 -104.923816 14.235563 271.046577 2.240602 0.386805 -2.614104 140.304380 -35.772501 107.236251 -0.000000 0.000000 -18.592892 -107.396214 40.860288 137.181372 0.000001 0.000000 -18.765797 9.418962 36.953847 -19.677992 -2.014898 -0.220898 -2.615898 -119.812405 -13.154715 -102.659751 0.000000 0.000004 -18.633884 181.040598 26.305017 -181.027498 -0.000006 -0.000007 -18.285084 -13.424414 34.752388 -211.130846
